<svg fill="#FFFFFF" xmlns="http://www.w3.org/2000/svg" xmlns:xlink="http://www.w3.org/1999/xlink" version="1.1" x="0px" y="0px" viewBox="0 0 100 100" enable-background="new 0 0 100 100" xml:space="preserve"><g><polygon fill="#FFFFFF" points="91.025,38.018 90.362,54.736 97.891,42.112  "></polygon><polygon fill="#FFFFFF" points="65.395,96.6 71.269,86.753 47.289,85.802  "></polygon><polygon fill="#FFFFFF" points="73.18,22.143 73.8,24.422 77.233,24.559 81.498,24.728 81.404,27.044 81.201,32.159 80.95,38.474    80.747,43.589 80.528,49.133 80.991,50.836 82.629,56.861 84.657,64.304 85.375,66.948 85.543,62.824 86,51.208 86.38,41.712    86.629,35.397 86.837,30.282 87.267,19.4 72.275,18.804  "></polygon><polygon fill="#FFFFFF" points="74.287,70.849 68.038,72.551 62.763,73.985 56.736,75.628 38.535,80.584 37.339,80.908    39.203,80.983 73.888,82.361 79,82.561 84.746,82.789 85.164,72.229 85.286,69.227 85.343,67.84 82.005,68.751  "></polygon><path fill="#FFFFFF" d="M57.398,70.785l8.567-2.327l5.389-1.471l6.254-1.699l2.305-0.629l0.167-0.047l-0.146-0.536l-0.503-1.851   l-1.641-6.028l-1.275-4.686l-0.507-1.865l-2.889-10.61l-1.701-6.247l-1.089-4.007l-1.01-3.71l-0.231-0.837l-1.472-5.413   l-0.056-0.208l-1.235-4.549L63.42,3.4L48.546,7.447l-10.987,2.99l-7.965,2.167l-10.259,2.796l-17.225,4.69l9.304,34.194   l1.639,6.024l1.649,6.062l1.701,6.249l0.571,2.101l1.793,6.584l3.634-0.988l4.739-1.293l6.031-1.644l18.203-4.948L57.398,70.785z    M15.364,47.656L8.922,23.987l10.181-2.775l4.547-1.232l9.812-2.673l0.156-0.041l6.095-1.663l8.333-2.262l1.096-0.301l6.031-1.641   l4.35-1.184l0.983,3.618l0.243,0.891l0.996,3.66l0.705,2.59L63.273,24l1.239,4.551l-0.217-0.011l0.252,0.155l1.703,6.245   l4.907,18.029l-29.962,8.159l-5.917,1.605l-0.171-0.01l0.062,0.042l-7.748,2.106l-5.618,1.531l-1.248,0.337l-2.849-10.471   l-0.704-2.583L15.364,47.656z"></path></g></svg>
