<?xml version="1.0" encoding="utf-8"?>
<!-- Generator: Adobe Illustrator 23.0.2, SVG Export Plug-In . SVG Version: 6.00 Build 0)  -->
<svg version="1.1" id="Layer_1" xmlns="http://www.w3.org/2000/svg" xmlns:xlink="http://www.w3.org/1999/xlink" x="0px" y="0px"
	 viewBox="0 0 24 24" style="enable-background:new 0 0 24 24;" xml:space="preserve">
<style type="text/css">
	.st0{stroke:#2B3435;stroke-width:2;stroke-miterlimit:10;}
	.st1{fill:#2B3435;}
	.st2{fill:#FFFFFF;stroke:#2B3435;stroke-width:2;stroke-miterlimit:10;}
</style>
<title>select_outline_grey</title>
<path class="st0" d="M12,2c5.5,0,10,4.5,10,10s-4.5,10-10,10S2,17.6,2,12S6.4,2,12,2 M12,1C5.9,1,1,6,1,12s4.9,11,11,11
	s11-4.9,11-11S18.1,1,12,1z"/>
<path class="st1" d="M17.6,7.8c0.4,0.4,0.4,1,0,1.4c0,0,0,0,0,0l-7.1,7.1c-0.4,0.4-1,0.4-1.4,0l-2.8-2.8C6,13,6,12.4,6.3,12
	s1-0.4,1.4,0l2.1,2.1l6.4-6.4C16.6,7.4,17.3,7.4,17.6,7.8z"/>
<circle class="st2" cx="12" cy="12" r="10.3"/>
</svg>
