<svg fill="#666666" xmlns:x="http://ns.adobe.com/Extensibility/1.0/" xmlns:i="http://ns.adobe.com/AdobeIllustrator/10.0/" xmlns:graph="http://ns.adobe.com/Graphs/1.0/" xmlns="http://www.w3.org/2000/svg" xmlns:xlink="http://www.w3.org/1999/xlink" xmlns:a="http://ns.adobe.com/AdobeSVGViewerExtensions/3.0/" version="1.1" x="0px" y="0px" viewBox="50 50 412 412" enable-background="new 50 50 412 412" xml:space="preserve"><g><g><polygon fill="#666666" points="312.977,221.24 249.889,306.121 208.135,280.738 207.965,279.643 145,327.158 145,343     228.879,343 313.02,343 355.092,343 397,343 397,322.084 365.52,252.795   "></polygon><path fill="#666666" d="M192.838,228.834c13.612,0,24.651-11.035,24.651-24.641c0-13.609-11.039-24.648-24.651-24.648    c-13.604,0-24.642,11.039-24.642,24.648C168.196,217.799,179.234,228.834,192.838,228.834z"></path><path fill="#666666" d="M436.602,378.318L436,370.326v-236.25c0-5.719-4.322-11.076-10.039-11.076h-10.763    c-2.158-2.459-5.392-3.92-8.903-3.656L357.727,123H115.044c-5.709,0-10.044,5.357-10.044,11.076v7.949l-22.029,1.658    c-5.938,0.447-10.396,5.639-9.947,11.584l18.744,249.008c0.445,5.947,5.633,10.414,11.568,9.967l323.326-24.338    C432.605,389.457,437.049,384.264,436.602,378.318z M124,159.115V144h196.787h81.325H417v198.1V363H124V159.115z M90.377,161.646    L105,160.546v195.362L90.377,161.646z M106.775,379.5c1.785,2.705,4.766,4.5,8.269,4.5h144.011l-151.084,11.373L106.775,379.5z"></path></g></g></svg>
