<svg fill="#006d78" xmlns="http://www.w3.org/2000/svg" xmlns:xlink="http://www.w3.org/1999/xlink" version="1.1" x="0px" y="0px" viewBox="0 0 512 512" style="enable-background:new 0 0 512 512;" xml:space="preserve"><g><path d="M411.4,151h-57.3c-9.4,0-17,7.6-17,17s7.6,17,17,17h57.3c12.7,0,22.6,10.7,22.6,23.4v218   c0,12.7-9.9,22.7-22.6,22.7H100.6C87.9,449,78,439,78,426.3v-218c0-12.7,9.9-23.4,22.6-23.4h57.3c9.4,0,17-7.6,17-17s-7.6-17-17-17   h-57.3C69.1,151,44,176.9,44,208.4v218c0,31.4,25.1,56.7,56.6,56.7h310.9c31.4,0,56.6-25.3,56.6-56.7v-218   C468,176.9,442.9,151,411.4,151z"></path><path d="M253,28.7c-9.4,0-17,7.6-17,17v270.4l-34.4-27.7c-7.3-5.9-18.1-4.8-24,2.5c-5.9,7.3-4.9,18,2.4,23.9   l61.9,50.2c3.1,2.5,6.9,3.8,10.7,3.8c3.8,0,7.5-1.2,10.6-3.7l62.9-50.2c7.3-5.9,8.5-16.6,2.7-23.9c-5.9-7.3-16.3-8.5-23.6-2.7   L270,316.4V45.7C270,36.3,262.4,28.7,253,28.7z"></path></g></svg>
