<svg fill="#0097a7" xmlns="http://www.w3.org/2000/svg" xmlns:xlink="http://www.w3.org/1999/xlink" width="100" height="100" viewBox="0 0 100 100"><g><g transform="translate(50 50) scale(1 1) rotate(90) translate(-50 -50)" style="fill:#0097a7"><g><polygon points="59.9,69 40.6,50.2 59.5,30.9 56.6,28.1 35,50.3 57.1,71.9  "></polygon><path d="M50,90c22.1,0,40-17.9,40-40S72.1,10,50,10S10,27.9,10,50S27.9,90,50,90z M50,14c19.9,0,36,16.1,36,36S69.9,86,50,86   S14,69.9,14,50S30.1,14,50,14z"></path></g></g></g></svg>
