<svg fill="#FFFFFF" xmlns:dc="http://purl.org/dc/elements/1.1/" xmlns:cc="http://creativecommons.org/ns#" xmlns:rdf="http://www.w3.org/1999/02/22-rdf-syntax-ns#" xmlns:svg="http://www.w3.org/2000/svg" xmlns="http://www.w3.org/2000/svg" xmlns:sodipodi="http://sodipodi.sourceforge.net/DTD/sodipodi-0.dtd" xmlns:inkscape="http://www.inkscape.org/namespaces/inkscape" version="1.1" x="0px" y="0px" viewBox="0 0 32 32"><g transform="translate(0,-1020.3622)"><path style="text-indent:0;text-transform:none;direction:ltr;block-progression:tb;baseline-shift:baseline;color:#000000;enable-background:accumulate;" d="M 16 0 C 7.1693639 0 0 7.1694 0 16 C 0 24.8306 7.1693639 32 16 32 C 24.830626 32 32 24.8306 32 16 C 32 7.1694 24.830626 0 16 0 z M 16 1 C 24.290192 1 31 7.7098 31 16 C 31 24.2902 24.290192 31 16 31 C 7.709798 31 1 24.2902 1 16 C 1 7.7098 7.709798 1 16 1 z M 8.96875 8.625 A 0.50005 0.50005 0 0 0 8.9375 8.65625 A 0.50005 0.50005 0 0 0 8.75 9.5 L 15.28125 16.03125 L 8.75 22.53125 A 0.50825068 0.50825068 0 0 0 9.46875 23.25 L 15.96875 16.71875 L 22.5 23.25 A 0.50825068 0.50825068 0 1 0 23.21875 22.53125 L 16.6875 16.03125 L 23.21875 9.5 A 0.50005 0.50005 0 1 0 22.5 8.8125 L 15.96875 15.3125 L 9.46875 8.8125 A 0.50005 0.50005 0 0 0 8.96875 8.625 z " transform="translate(0,1020.3622)" fill="#FFFFFF" fill-opacity="1" stroke="none" marker="none" visibility="visible" display="inline" overflow="visible"></path></g></svg>
