<svg fill="#666666" xmlns="http://www.w3.org/2000/svg" data-name="Layer 1" viewBox="10 -2 76 99" x="0px" y="0px"><title>Artboard 89</title><path d="M81,96H45a2.00008,2.00008,0,0,1-2-2,2.48765,2.48765,0,0,0-1.40332-1.8389A8.90809,8.90809,0,0,0,37,91a8.91683,8.91683,0,0,0-4.59672,1.1602A2.49022,2.49022,0,0,0,31,94a2.0001,2.0001,0,0,1-2,2H15a2.00008,2.00008,0,0,1-2-2V21a2.00248,2.00248,0,0,1,.52538-1.3516l17.4199-19A2.00176,2.00176,0,0,1,32.41988,0H81a2.0001,2.0001,0,0,1,2,2V94A2.0001,2.0001,0,0,1,81,96ZM46.59768,92H79V4H33.29978L17,21.7783V92H27.40228a7.08274,7.08274,0,0,1,2.8799-3.2314A12.815,12.815,0,0,1,37,87a12.80694,12.80694,0,0,1,6.71778,1.7695A7.0706,7.0706,0,0,1,46.59768,92Z"></path><rect x="68" y="8" width="8" height="16" rx="2" ry="2"></rect><rect x="56.333" y="8" width="8" height="16" rx="2" ry="2"></rect><rect x="44.667" y="8" width="8" height="16" rx="2" ry="2"></rect><rect x="33" y="8" width="8" height="16" rx="2" ry="2"></rect><rect x="22" y="19" width="8" height="16" rx="2" ry="2"></rect></svg>