<svg fill="#666666" xmlns="http://www.w3.org/2000/svg" xmlns:xlink="http://www.w3.org/1999/xlink" version="1.1" x="0px" y="0px" viewBox="0 0 100 100" enable-background="new 0 0 100 100" xml:space="preserve"><g><g><path fill="#666666" d="M75.4,36.838h-5.704l-0.121-0.324c-1.846-4.911-6.621-8.21-11.885-8.21H42.31    c-5.265,0-10.04,3.299-11.885,8.21l-0.121,0.324H24.6c-8.104,0-14.696,6.593-14.696,14.697v31.06    c0,8.104,6.593,14.696,14.696,14.696H75.4c8.104,0,14.696-6.593,14.696-14.696v-31.06C90.097,43.431,83.504,36.838,75.4,36.838z     M83.969,82.595c0,4.725-3.844,8.568-8.568,8.568H24.6c-4.725,0-8.568-3.844-8.568-8.568v-31.06c0-4.725,3.844-8.569,8.568-8.569    h10.704l0.527-3.073c0.543-3.165,3.267-5.462,6.479-5.462H57.69c3.211,0,5.936,2.296,6.479,5.46l0.524,3.074H75.4    c4.725,0,8.568,3.844,8.568,8.569V82.595z"></path><path fill="#666666" d="M50,48.141c-10.469,0-18.985,8.517-18.985,18.985c0,10.469,8.517,18.985,18.985,18.985    s18.985-8.517,18.985-18.985C68.985,56.657,60.469,48.141,50,48.141z M50,79.7c-6.934,0-12.574-5.641-12.574-12.574    c0-6.933,5.641-12.574,12.574-12.574s12.574,5.641,12.574,12.574C62.574,74.059,56.934,79.7,50,79.7z"></path><path fill="#666666" d="M50.279,20.439c1.768,0,3.205-1.438,3.205-3.206V5.914c0-1.768-1.438-3.206-3.205-3.206    s-3.206,1.438-3.206,3.206v11.319C47.073,19.001,48.512,20.439,50.279,20.439z"></path><path fill="#666666" d="M71.438,26.503l8.004-8.004c0.605-0.605,0.939-1.41,0.939-2.267c0-0.856-0.334-1.661-0.939-2.267    c-0.625-0.625-1.445-0.938-2.267-0.938s-1.642,0.313-2.267,0.938l-8.004,8.004c-0.605,0.605-0.939,1.41-0.939,2.267    c0,0.856,0.334,1.661,0.939,2.267C68.116,27.714,70.228,27.714,71.438,26.503z"></path><path fill="#666666" d="M29.12,26.503c1.211,1.211,3.322,1.211,4.533,0c1.25-1.25,1.25-3.283,0-4.533l-8.005-8.004    c-0.625-0.625-1.445-0.938-2.267-0.938s-1.642,0.313-2.267,0.938c-1.25,1.25-1.249,3.283,0,4.533L29.12,26.503z"></path></g></g></svg>
