<svg fill="#666666" xmlns="http://www.w3.org/2000/svg" xmlns:xlink="http://www.w3.org/1999/xlink" version="1.1" x="0px" y="0px" viewBox="0 0 70 70" style="enable-background:new 0 0 70 70;" xml:space="preserve"><path d="M6.9458008,39.2880859c2.385498,0,4.3815308-1.697998,4.8441162-3.9482422h19.2047729  c0.2223511,1.9753418,1.0960083,3.7529297,2.3984375,5.1210938l-7.9658813,8.159668  c-0.7773438-0.5092773-1.7025757-0.8110352-2.6992188-0.8110352c-2.7270508,0-4.9458008,2.21875-4.9458008,4.9453125  c0,2.7275391,2.21875,4.9462891,4.9458008,4.9462891s4.9458008-2.21875,4.9458008-4.9462891  c0-1.0079346-0.3063965-1.9443359-0.826355-2.7270508l8.0788574-8.2753906  c1.4061279,0.9324951,3.0894775,1.4790039,4.899353,1.4790039c1.0334473,0,2.0219727-0.1864014,2.9454346-0.512085  l13.6867676,13.6867676c-0.607666,0.8215332-0.9793701,1.8270264-0.9793701,2.9249268  c0,2.7265625,2.2182617,4.9453125,4.9453125,4.9453125s4.9458008-2.21875,4.9458008-4.9453125  s-2.21875-4.9453125-4.9458008-4.9453125c-0.9041138,0-1.7410889,0.2617188-2.4710693,0.6871338L44.6673584,41.7874756  c2.434021-1.5880127,4.0494385-4.3304443,4.0494385-7.4476318c0-1.5266113-0.3874512-2.9643555-1.0682373-4.2208252  l12.6925659-12.6925049c0.7799683,0.5145264,1.7107544,0.8186035,2.7130737,0.8186035  C65.78125,18.2451172,68,16.0263672,68,13.2988281c0-2.7265625-2.21875-4.9453125-4.9458008-4.9453125  s-4.9453125,2.21875-4.9453125,4.9453125c0,1.0024414,0.3040161,1.9333496,0.8183594,2.7133789L46.4780273,28.4614258  c-1.421875-1.6069336-3.4093628-2.699585-5.6523438-2.9521484V15.512207  c2.2491455-0.4637451,3.9453125-2.4592285,3.9453125-4.8432617c0-2.7265625-2.2182617-4.9453125-4.9453125-4.9453125  s-4.9458008,2.21875-4.9458008,4.9453125c0,2.3840332,1.6965332,4.3795166,3.9458008,4.8432617v9.9970703  c-4.1040649,0.4621582-7.3688965,3.7265625-7.8309937,7.8305664H11.788208  c-0.4647827-2.248291-2.4589233-3.9433594-4.8424072-3.9433594C4.21875,29.3964844,2,31.6152344,2,34.3427734  C2,37.0693359,4.21875,39.2880859,6.9458008,39.2880859z M63.3696289,59.3310547  c0,1.6240234-1.3212891,2.9453125-2.9458008,2.9453125c-1.6240234,0-2.9453125-1.3212891-2.9453125-2.9453125  s1.3212891-2.9453125,2.9453125-2.9453125C62.0483398,56.3857422,63.3696289,57.7070312,63.3696289,59.3310547z   M63.0541992,10.3535156C64.6787109,10.3535156,66,11.6748047,66,13.2988281c0,1.625-1.3212891,2.9462891-2.9458008,2.9462891  c-1.6240234,0-2.9453125-1.3212891-2.9453125-2.9462891C60.1088867,11.6748047,61.4301758,10.3535156,63.0541992,10.3535156z   M22.7280273,55.7011719c-1.6245117,0-2.9458008-1.3212891-2.9458008-2.9462891  c0-1.6240234,1.3212891-2.9453125,2.9458008-2.9453125s2.9458008,1.3212891,2.9458008,2.9453125  C25.6738281,54.3798828,24.3525391,55.7011719,22.7280273,55.7011719z M36.8798828,10.6689453  c0-1.6240234,1.3212891-2.9453125,2.9458008-2.9453125c1.6240234,0,2.9453125,1.3212891,2.9453125,2.9453125  s-1.3212891,2.9453125-2.9453125,2.9453125C38.2011719,13.6142578,36.8798828,12.2929688,36.8798828,10.6689453z   M39.8256836,27.4492188c3.7998047,0,6.8911133,3.0908203,6.8911133,6.890625s-3.0913086,6.8916016-6.8911133,6.8916016  s-6.8911133-3.0917969-6.8911133-6.8916016S36.0258789,27.4492188,39.8256836,27.4492188z M6.9458008,31.3964844  c1.6240234,0,2.9453125,1.3212891,2.9453125,2.9462891c0,1.6240234-1.3212891,2.9453125-2.9453125,2.9453125  C5.3212891,37.2880859,4,35.9667969,4,34.3427734C4,32.7177734,5.3212891,31.3964844,6.9458008,31.3964844z"></path></svg>
