<svg fill="#666666" xmlns="http://www.w3.org/2000/svg" xmlns:xlink="http://www.w3.org/1999/xlink" version="1.1" x="0px" y="0px" viewBox="-10 -10 120 120" style="enable-background:new 0 0 100 100;" xml:space="preserve"><style type="text/css">
	.st0{fill-rule:evenodd;clip-rule:evenodd;}
</style><path class="st0" d="M61.2,50.5l32.1,32.1c3,3,3,7.7,0,10.7c-3,3-7.7,3-10.7,0L50.5,61.2L18.4,93.3c-3,3-7.7,3-10.7,0  c-3-3-3-7.7,0-10.7l32.1-32.1L7.7,18.4c-3-3-3-7.7,0-10.7s7.7-3,10.7,0l32.1,32.1L82.6,7.7c3-3,7.7-3,10.7,0c3,3,3,7.7,0,10.7  L61.2,50.5z"></path></svg>
