<?xml version="1.0" encoding="utf-8"?>
<!-- Generator: Adobe Illustrator 23.0.1, SVG Export Plug-In . SVG Version: 6.00 Build 0)  -->
<svg version="1.1" id="Layer_1" xmlns="http://www.w3.org/2000/svg" xmlns:xlink="http://www.w3.org/1999/xlink" x="0px" y="0px"
	 viewBox="0 0 70 70" style="enable-background:new 0 0 70 70;" xml:space="preserve">
<style type="text/css">
	.st0{fill:#666666;stroke:#666666;stroke-width:2;stroke-miterlimit:10;}
</style>
<path class="st0" d="M6.9,39.3c2.4,0,4.4-1.7,4.8-3.9H31c0.2,2,1.1,3.8,2.4,5.1l-8,8.2c-0.8-0.5-1.7-0.8-2.7-0.8
	c-2.7,0-4.9,2.2-4.9,4.9c0,2.7,2.2,4.9,4.9,4.9s4.9-2.2,4.9-4.9c0-1-0.3-1.9-0.8-2.7l8.1-8.3c1.4,0.9,3.1,1.5,4.9,1.5
	c1,0,2-0.2,2.9-0.5l13.7,13.7c-0.6,0.8-1,1.8-1,2.9c0,2.7,2.2,4.9,4.9,4.9s4.9-2.2,4.9-4.9s-2.2-4.9-4.9-4.9c-0.9,0-1.7,0.3-2.5,0.7
	L44.7,41.8c2.4-1.6,4-4.3,4-7.4c0-1.5-0.4-3-1.1-4.2l12.7-12.7c0.8,0.5,1.7,0.8,2.7,0.8c2.7,0,4.9-2.2,4.9-4.9
	c0-2.7-2.2-4.9-4.9-4.9s-4.9,2.2-4.9,4.9c0,1,0.3,1.9,0.8,2.7L46.5,28.5c-1.4-1.6-3.4-2.7-5.7-3v-10c2.2-0.5,3.9-2.5,3.9-4.8
	c0-2.7-2.2-4.9-4.9-4.9s-4.9,2.2-4.9,4.9c0,2.4,1.7,4.4,3.9,4.8v10c-4.1,0.5-7.4,3.7-7.8,7.8H11.8c-0.5-2.2-2.5-3.9-4.8-3.9
	c-2.7,0-4.9,2.2-4.9,4.9C2,37.1,4.2,39.3,6.9,39.3z M63.4,59.3c0,1.6-1.3,2.9-2.9,2.9c-1.6,0-2.9-1.3-2.9-2.9s1.3-2.9,2.9-2.9
	C62,56.4,63.4,57.7,63.4,59.3z M63.1,10.4c1.6,0,2.9,1.3,2.9,2.9c0,1.6-1.3,2.9-2.9,2.9c-1.6,0-2.9-1.3-2.9-2.9
	C60.1,11.7,61.4,10.4,63.1,10.4z M22.7,55.7c-1.6,0-2.9-1.3-2.9-2.9c0-1.6,1.3-2.9,2.9-2.9s2.9,1.3,2.9,2.9
	C25.7,54.4,24.4,55.7,22.7,55.7z M36.9,10.7c0-1.6,1.3-2.9,2.9-2.9c1.6,0,2.9,1.3,2.9,2.9s-1.3,2.9-2.9,2.9
	C38.2,13.6,36.9,12.3,36.9,10.7z M39.8,27.4c3.8,0,6.9,3.1,6.9,6.9s-3.1,6.9-6.9,6.9s-6.9-3.1-6.9-6.9S36,27.4,39.8,27.4z M6.9,31.4
	c1.6,0,2.9,1.3,2.9,2.9c0,1.6-1.3,2.9-2.9,2.9C5.3,37.3,4,36,4,34.3C4,32.7,5.3,31.4,6.9,31.4z"/>
</svg>
