<?xml version="1.0" encoding="utf-8"?>
<!-- Generator: Adobe Illustrator 23.0.2, SVG Export Plug-In . SVG Version: 6.00 Build 0)  -->
<svg version="1.1" id="Layer_1" xmlns="http://www.w3.org/2000/svg" xmlns:xlink="http://www.w3.org/1999/xlink" x="0px" y="0px"
	 viewBox="0 0 88 88" style="enable-background:new 0 0 88 88;" xml:space="preserve">
<style type="text/css">
	.st0{fill:#666666;}
</style>
<title>Tech Crap</title>
<path class="st0" d="M79.3,49.1c0.5-3.4,0.5-6.8,0-10.2l-7-2.5c-0.7-2.5-1.7-4.9-2.9-7.1l3.2-6.7c-2-2.7-4.5-5.1-7.2-7.2l-6.7,3.2
	c-2.2-1.3-4.6-2.3-7.1-3l-2.5-7c-3.4-0.5-6.8-0.5-10.2,0l-2.5,7c-2.5,0.7-4.9,1.7-7.1,3l-6.7-3.2c-2.7,2-5.1,4.5-7.2,7.2l3.2,6.7
	c-1.3,2.2-2.3,4.6-3,7.1l-7,2.5c-0.5,3.4-0.5,6.8,0,10.2l7,2.5c0.7,2.5,1.7,4.9,3,7.1l-3.2,6.7c2,2.7,4.5,5.1,7.2,7.2l6.7-3.2
	c2.2,1.3,4.6,2.3,7.1,2.9l2.5,7c3.4,0.5,6.8,0.5,10.2,0l2.5-7c2.5-0.7,4.9-1.7,7.1-2.9l6.7,3.2c2.7-2,5.1-4.5,7.2-7.2l-3.2-6.7
	c1.3-2.2,2.3-4.6,2.9-7.1L79.3,49.1z"/>
</svg>
