<svg id="Layer_1" data-name="Layer 1" xmlns="http://www.w3.org/2000/svg" viewBox="0 0 24 24">
  <defs>
    <style>
      .cls-1 {
        fill: #2b3435;
      }
    </style>
  </defs>
  <title>select_outline_grey</title>
  <path class="cls-1" d="M12.5,1.5a11,11,0,1,1-11,11,11,11,0,0,1,11-11m0-1a12,12,0,1,0,12,12,12,12,0,0,0-12-12Z" transform="translate(-0.5 -0.5)"/>
  <path class="cls-1" d="M18.15,8.26a1,1,0,0,1,0,1.42l-7.07,7.07a1,1,0,0,1-1.41,0L6.84,13.92a1,1,0,0,1,1.42-1.41l2.12,2.12,6.36-6.37A1,1,0,0,1,18.15,8.26Z" transform="translate(-0.5 -0.5)"/>
</svg>
